<svg xmlns="http://www.w3.org/2000/svg" aria-hidden="true"
    style="position:absolute;width:0;height:0;overflow:hidden">
    <defs>
        <symbol id="icon-compass-regular" viewBox="0 0 32 32">
            <path
                d="M29 16c0-7.18-5.82-13-13-13S3 8.82 3 16s5.82 13 13 13 13-5.82 13-13zM0 16C0 7.163 7.163 0 16 0s16 7.163 16 16-7.163 16-16 16S0 24.837 0 16zm19.169 4.319-9.019 3.469c-1.213.469-2.406-.725-1.938-1.938l3.469-9.019a2.004 2.004 0 0 1 1.15-1.15l9.019-3.469c1.212-.469 2.406.725 1.938 1.938l-3.469 9.019c-.2.531-.619.944-1.15 1.15zM18 16a2 2 0 1 0-4 0 2 2 0 1 0 4 0z" />
        </symbol>
        <symbol id="icon-newspaper-regular" viewBox="0 0 32 32">
            <path
                d="M10.5 5C9.669 5 9 5.669 9 6.5v19c0 .525-.088 1.031-.256 1.5H27.5c.831 0 1.5-.669 1.5-1.5v-19c0-.831-.669-1.5-1.5-1.5h-17zm-6 25A4.497 4.497 0 0 1 0 25.5V7c0-.831.669-1.5 1.5-1.5S3 6.169 3 7v18.5c0 .831.669 1.5 1.5 1.5S6 26.331 6 25.5v-19C6 4.013 8.012 2 10.5 2h17C29.988 2 32 4.013 32 6.5v19c0 2.488-2.012 4.5-4.5 4.5h-23zM11 8.5c0-.831.669-1.5 1.5-1.5h6c.831 0 1.5.669 1.5 1.5v5c0 .831-.669 1.5-1.5 1.5h-6c-.831 0-1.5-.669-1.5-1.5v-5zM23.5 7h2c.831 0 1.5.669 1.5 1.5s-.669 1.5-1.5 1.5h-2c-.831 0-1.5-.669-1.5-1.5S22.669 7 23.5 7zm0 5h2c.831 0 1.5.669 1.5 1.5s-.669 1.5-1.5 1.5h-2c-.831 0-1.5-.669-1.5-1.5s.669-1.5 1.5-1.5zm-11 5h13c.831 0 1.5.669 1.5 1.5s-.669 1.5-1.5 1.5h-13c-.831 0-1.5-.669-1.5-1.5s.669-1.5 1.5-1.5zm0 5h13c.831 0 1.5.669 1.5 1.5s-.669 1.5-1.5 1.5h-13c-.831 0-1.5-.669-1.5-1.5s.669-1.5 1.5-1.5z" />
        </symbol>
    </defs>
</svg>
